<?xml version="1.0" encoding="utf-8"?>
<!-- Generator: Adobe Illustrator 23.0.2, SVG Export Plug-In . SVG Version: 6.00 Build 0)  -->
<svg version="1.1" xmlns="http://www.w3.org/2000/svg" xmlns:xlink="http://www.w3.org/1999/xlink" x="0px" y="0px" width="171px"
	 height="76.5px" viewBox="0 0 171 76.5" style="enable-background:new 0 0 171 76.5;" xml:space="preserve">
<style type="text/css">
	.st0{fill:none;}
</style>
<g id="Ebene_3">
	<g>
		<polygon points="100.5,0.2 100.5,76.3 114.5,76.3 114.5,0.2 		"/>
		<polygon points="152.1,0.2 114.5,35.4 114.5,38.8 152.9,76.3 170.6,76.3 128.2,36.2 168.7,0.2 		"/>
	</g>
</g>
<g id="Ebene_5">
	<path d="M22.7,60.2"/>
	<g>
		<polygon class="st0" points="26.3,50.5 26.3,50.5 26.7,49.4 		"/>
		<polygon points="54.2,0.2 34.2,0.2 0.2,76.2 15.2,76.2 22,60.8 22,60.8 26.3,50.5 26.3,50.5 26.7,49.4 26.7,49.4 26.7,49.4 
			43.5,9.6 61,50.5 28.5,50.5 24.6,60.2 65.2,60.2 72.2,76.2 87.2,76.2 		"/>
		<polygon points="26.7,49.4 26.7,49.4 26.7,49.4 		"/>
	</g>
</g>
</svg>
